<svg xmlns="http://www.w3.org/2000/svg" viewBox="0 0 64 72">
  <g stroke="#fff9f3" stroke-width="2.2" stroke-linejoin="round">
    <path fill="#9daa8a" d="M33 28C18 23 16 11 21 9c6-2 11 8 13 13C30 8 34 2 39 4c5 2 2 12-1 18 7-9 15-10 17-5 2 6-10 12-19 14Z"/>
    <path fill="#d8a072" d="M23 24c5-5 20 0 23 7 3 9-17 32-29 36-5 2-3-27 2-37Z"/>
  </g>
  <path d="M24 31c-3 6-5 16-5 23" fill="none" stroke="#f5d7b7" stroke-width="2.5" stroke-linecap="round"/>
  <path d="m35 36 7 3m-21 6 7 3m-3 9 5 1" fill="none" stroke="#b78361" stroke-width="1.5" stroke-linecap="round"/>
  <g fill="#cd86a0" stroke="#fff9f3" stroke-width="1.7" stroke-linejoin="round">
    <path d="M33 28c-7-12-17-9-13-1 2 4 7 4 12 3l-6 10 7-3 2-7 5 9 6-1-9-9c12 1 15-7 10-9-5-1-9 5-12 8Z"/>
    <ellipse cx="34" cy="29" rx="3.5" ry="3"/>
  </g>
</svg>
